HIERARCHY
ROOT Hips
{
	OFFSET 0.053599 88.859886 3.107447
	CHANNELS 6 Xposition Yposition Zposition Zrotation Yrotation Xrotation 
	JOINT Spine
	{
		OFFSET -0.000000 8.814246 -2.080107
		CHANNELS 3 Zrotation Yrotation Xrotation
		JOINT Spine1
		{
			OFFSET 0.000000 8.844141 0.000000
			CHANNELS 3 Zrotation Yrotation Xrotation
			JOINT Spine2
			{
				OFFSET -0.000000 11.682268 0.000000
				CHANNELS 3 Zrotation Yrotation Xrotation
				JOINT Spine3
				{
					OFFSET 0.000000 11.746700 0.000000
					CHANNELS 3 Zrotation Yrotation Xrotation
					JOINT Neck
					{
						OFFSET -0.000000 17.658264 -0.000000
						CHANNELS 3 Zrotation Yrotation Xrotation
						JOINT Neck1
						{
							OFFSET -0.000000 5.101515 -0.000000
							CHANNELS 3 Zrotation Yrotation Xrotation
							JOINT Head
							{
								OFFSET 0.000000 5.101515 0.000000
								CHANNELS 3 Zrotation Yrotation Xrotation
								JOINT HeadEnd
								{
									OFFSET 0.000000 11.655085 0.000000
									CHANNELS 3 Zrotation Yrotation Xrotation
									End Site
									{
										OFFSET 0.000000 0.000000 0.000000
									}
								}
							}
						}
					}
					JOINT RightShoulder
					{
						OFFSET -2.625389 11.175210 0.000000
						CHANNELS 3 Zrotation Yrotation Xrotation
						JOINT RightArm
						{
							OFFSET -0.000000 10.434715 -0.000000
							CHANNELS 3 Zrotation Yrotation Xrotation
							JOINT RightForeArm
							{
								OFFSET -0.000000 29.628420 0.000000
								CHANNELS 3 Zrotation Yrotation Xrotation
								JOINT RightHand
								{
									OFFSET -0.000000 22.857611 0.000000
									CHANNELS 3 Zrotation Yrotation Xrotation
									JOINT RightHandThumb1
									{
										OFFSET -2.867323 3.959563 2.944291
										CHANNELS 3 Zrotation Yrotation Xrotation
										JOINT RightHandThumb2
										{
											OFFSET 0.000000 3.350399 0.000000
											CHANNELS 3 Zrotation Yrotation Xrotation
											JOINT RightHandThumb3
											{
												OFFSET 0.000000 3.756509 -0.000000
												CHANNELS 3 Zrotation Yrotation Xrotation
												JOINT RightHandThumb4
												{
													OFFSET 0.000000 3.147345 0.000000
													CHANNELS 3 Zrotation Yrotation Xrotation
													End Site
													{
														OFFSET 0.000000 0.000000 0.000000
													}
												}
											}
										}
									}
									JOINT RightHandIndex1
									{
										OFFSET -0.086752 10.030893 2.345280
										CHANNELS 3 Zrotation Yrotation Xrotation
										JOINT RightHandIndex2
										{
											OFFSET -0.000000 4.061090 0.000000
											CHANNELS 3 Zrotation Yrotation Xrotation
											JOINT RightHandIndex3
											{
												OFFSET -0.000000 3.248873 0.000000
												CHANNELS 3 Zrotation Yrotation Xrotation
												JOINT RightHandIndex4
												{
													OFFSET 0.000000 2.639709 -0.000000
													CHANNELS 3 Zrotation Yrotation Xrotation
													End Site
													{
														OFFSET 0.000000 0.000000 0.000000
													}
												}
											}
										}
									}
									JOINT RightHandMiddle1
									{
										OFFSET 0.104102 9.502952 0.006768
										CHANNELS 3 Zrotation Yrotation Xrotation
										JOINT RightHandMiddle2
										{
											OFFSET 0.000000 4.568727 0.000000
											CHANNELS 3 Zrotation Yrotation Xrotation
											JOINT RightHandMiddle3
											{
												OFFSET 0.000000 3.654981 -0.000000
												CHANNELS 3 Zrotation Yrotation Xrotation
												JOINT RightHandMiddle4
												{
													OFFSET -0.000000 2.741236 -0.000000
													CHANNELS 3 Zrotation Yrotation Xrotation
													End Site
													{
														OFFSET 0.000000 0.000000 0.000000
													}
												}
											}
										}
									}
									JOINT RightHandRing1
									{
										OFFSET 0.086752 8.921708 -2.267442
										CHANNELS 3 Zrotation Yrotation Xrotation
										JOINT RightHandRing2
										{
											OFFSET -0.000000 4.061090 0.000000
											CHANNELS 3 Zrotation Yrotation Xrotation
											JOINT RightHandRing3
											{
												OFFSET 0.000000 3.654981 -0.000000
												CHANNELS 3 Zrotation Yrotation Xrotation
												JOINT RightHandRing4
												{
													OFFSET 0.000000 2.741236 -0.000000
													CHANNELS 3 Zrotation Yrotation Xrotation
													End Site
													{
														OFFSET 0.000000 0.000000 0.000000
													}
												}
											}
										}
									}
									JOINT RightHandPinky1
									{
										OFFSET -0.173504 7.976997 -4.467199
										CHANNELS 3 Zrotation Yrotation Xrotation
										JOINT RightHandPinky2
										{
											OFFSET 0.000000 3.350399 -0.000000
											CHANNELS 3 Zrotation Yrotation Xrotation
											JOINT RightHandPinky3
											{
												OFFSET -0.000000 2.842763 0.000000
												CHANNELS 3 Zrotation Yrotation Xrotation
												JOINT RightHandPinky4
												{
													OFFSET -0.000000 2.639709 0.000000
													CHANNELS 3 Zrotation Yrotation Xrotation
													End Site
													{
														OFFSET 0.000000 0.000000 0.000000
													}
												}
											}
										}
									}
									JOINT RightForeArmEnd
									{
										OFFSET 0.000000 0.000000 0.000000
										CHANNELS 3 Zrotation Yrotation Xrotation
										End Site
										{
											OFFSET 0.000000 0.000000 0.000000
										}
									}
								}
								JOINT RightArmEnd
								{
									OFFSET 0.000000 0.000000 0.000000
									CHANNELS 3 Zrotation Yrotation Xrotation
									End Site
									{
										OFFSET 0.000000 0.000000 0.000000
									}
								}
							}
						}
					}
					JOINT LeftShoulder
					{
						OFFSET 2.625389 11.175210 0.000000
						CHANNELS 3 Zrotation Yrotation Xrotation
						JOINT LeftArm
						{
							OFFSET 0.000000 10.813635 -0.000000
							CHANNELS 3 Zrotation Yrotation Xrotation
							JOINT LeftForeArm
							{
								OFFSET 0.000000 28.724781 0.000000
								CHANNELS 3 Zrotation Yrotation Xrotation
								JOINT LeftHand
								{
									OFFSET 0.644384 25.716167 -0.328871
									CHANNELS 3 Zrotation Yrotation Xrotation
									JOINT LeftHandThumb1
									{
										OFFSET 2.867323 3.959563 2.944291
										CHANNELS 3 Zrotation Yrotation Xrotation
										JOINT LeftHandThumb2
										{
											OFFSET 0.000000 3.350399 0.000000
											CHANNELS 3 Zrotation Yrotation Xrotation
											JOINT LeftHandThumb3
											{
												OFFSET -0.000000 3.756509 0.000000
												CHANNELS 3 Zrotation Yrotation Xrotation
												JOINT LeftHandThumb4
												{
													OFFSET -0.000000 3.100000 0.000000
													CHANNELS 3 Zrotation Yrotation Xrotation
													End Site
													{
														OFFSET 0.000000 0.000000 0.000000
													}
												}
											}
										}
									}
									JOINT LeftHandIndex1
									{
										OFFSET 0.086752 10.030893 2.345280
										CHANNELS 3 Zrotation Yrotation Xrotation
										JOINT LeftHandIndex2
										{
											OFFSET -0.000000 4.061090 -0.000000
											CHANNELS 3 Zrotation Yrotation Xrotation
											JOINT LeftHandIndex3
											{
												OFFSET 0.000000 3.248873 -0.000000
												CHANNELS 3 Zrotation Yrotation Xrotation
												JOINT LeftHandIndex4
												{
													OFFSET 0.000000 2.639709 -0.000000
													CHANNELS 3 Zrotation Yrotation Xrotation
													End Site
													{
														OFFSET 0.000000 0.000000 0.000000
													}
												}
											}
										}
									}
									JOINT LeftHandMiddle1
									{
										OFFSET -0.104102 9.502952 0.006768
										CHANNELS 3 Zrotation Yrotation Xrotation
										JOINT LeftHandMiddle2
										{
											OFFSET -0.000000 4.568727 -0.000000
											CHANNELS 3 Zrotation Yrotation Xrotation
											JOINT LeftHandMiddle3
											{
												OFFSET 0.000000 3.654981 0.000000
												CHANNELS 3 Zrotation Yrotation Xrotation
												JOINT LeftHandMiddle4
												{
													OFFSET 0.000000 2.741236 -0.000000
													CHANNELS 3 Zrotation Yrotation Xrotation
													End Site
													{
														OFFSET 0.000000 0.000000 0.000000
													}
												}
											}
										}
									}
									JOINT LeftHandRing1
									{
										OFFSET -0.086752 8.921708 -2.267442
										CHANNELS 3 Zrotation Yrotation Xrotation
										JOINT LeftHandRing2
										{
											OFFSET 0.000000 4.061090 0.000000
											CHANNELS 3 Zrotation Yrotation Xrotation
											JOINT LeftHandRing3
											{
												OFFSET 0.000000 3.654981 0.000000
												CHANNELS 3 Zrotation Yrotation Xrotation
												JOINT LeftHandRing4
												{
													OFFSET 0.000000 2.741236 0.000000
													CHANNELS 3 Zrotation Yrotation Xrotation
													End Site
													{
														OFFSET 0.000000 0.000000 0.000000
													}
												}
											}
										}
									}
									JOINT LeftHandPinky1
									{
										OFFSET 0.173504 7.976997 -4.467199
										CHANNELS 3 Zrotation Yrotation Xrotation
										JOINT LeftHandPinky2
										{
											OFFSET -0.000000 3.350399 -0.000000
											CHANNELS 3 Zrotation Yrotation Xrotation
											JOINT LeftHandPinky3
											{
												OFFSET 0.000000 2.842763 0.000000
												CHANNELS 3 Zrotation Yrotation Xrotation
												JOINT LeftHandPinky4
												{
													OFFSET -0.000000 2.639709 -0.000000
													CHANNELS 3 Zrotation Yrotation Xrotation
													End Site
													{
														OFFSET 0.000000 0.000000 0.000000
													}
												}
											}
										}
									}
									JOINT LeftForeArmEnd
									{
										OFFSET 0.000000 0.000000 0.000000
										CHANNELS 3 Zrotation Yrotation Xrotation
										End Site
										{
											OFFSET 0.000000 0.000000 0.000000
										}
									}
								}
								JOINT LeftArmEnd
								{
									OFFSET 0.000000 0.000000 0.000000
									CHANNELS 3 Zrotation Yrotation Xrotation
									End Site
									{
										OFFSET 0.000000 0.000000 0.000000
									}
								}
							}
						}
					}
				}
			}
		}
	}
	JOINT RightUpLeg
	{
		OFFSET -11.289943 0.000000 0.000000
		CHANNELS 3 Zrotation Yrotation Xrotation
		JOINT RightLeg
		{
			OFFSET 0.000000 -38.200325 0.000000
			CHANNELS 3 Zrotation Yrotation Xrotation
			JOINT RightFoot
			{
				OFFSET -0.000000 -39.900856 -0.000000
				CHANNELS 3 Zrotation Yrotation Xrotation
				JOINT RightToeBase
				{
					OFFSET 0.000000 0.000000 15.261641
					CHANNELS 3 Zrotation Yrotation Xrotation
					JOINT RightToeBaseEnd
					{
						OFFSET 0.000000 0.000000 7.370709
						CHANNELS 3 Zrotation Yrotation Xrotation
						End Site
						{
							OFFSET 0.000000 0.000000 0.000000
						}
					}
				}
				JOINT RightLegEnd
				{
					OFFSET 0.000000 0.000000 0.000000
					CHANNELS 3 Zrotation Yrotation Xrotation
					End Site
					{
						OFFSET 0.000000 0.000000 0.000000
					}
				}
			}
			JOINT RightUpLegEnd
			{
				OFFSET 0.000000 0.000000 0.000000
				CHANNELS 3 Zrotation Yrotation Xrotation
				End Site
				{
					OFFSET 0.000000 0.000000 0.000000
				}
			}
		}
	}
	JOINT LeftUpLeg
	{
		OFFSET 11.315661 -0.000000 0.000000
		CHANNELS 3 Zrotation Yrotation Xrotation
		JOINT LeftLeg
		{
			OFFSET -0.000000 -38.200325 -0.000000
			CHANNELS 3 Zrotation Yrotation Xrotation
			JOINT LeftFoot
			{
				OFFSET 0.000000 -39.900856 -0.000000
				CHANNELS 3 Zrotation Yrotation Xrotation
				JOINT LeftToeBase
				{
					OFFSET -0.000000 -0.000000 15.261641
					CHANNELS 3 Zrotation Yrotation Xrotation
					JOINT LeftToeBaseEnd
					{
						OFFSET 0.000000 -0.000000 7.539996
						CHANNELS 3 Zrotation Yrotation Xrotation
						End Site
						{
							OFFSET 0.000000 0.000000 0.000000
						}
					}
				}
				JOINT LeftLegEnd
				{
					OFFSET 0.000000 0.000000 0.000000
					CHANNELS 3 Zrotation Yrotation Xrotation
					End Site
					{
						OFFSET 0.000000 0.000000 0.000000
					}
				}
			}
			JOINT LeftUpLegEnd
			{
				OFFSET 0.000000 0.000000 0.000000
				CHANNELS 3 Zrotation Yrotation Xrotation
				End Site
				{
					OFFSET 0.000000 0.000000 0.000000
				}
			}
		}
	}
}
MOTION
Frames: 4
Frame Time: 0.016667
0.053599 88.859886 3.107447 0.490481 0.055862 -6.497332 0.023754 -0.000539 5.886370 -1.012250 0.067046 0.861970 0.478071 -2.416792 3.829567 0.155030 -0.780500 1.929224 2.330515 0.848112 5.016849 0.371683 2.117863 -3.221864 -0.714533 -0.852149 -18.222401 0.000000 0.000000 0.000000 92.418694 -0.394880 9.707912 65.456573 -33.431271 5.091406 -0.130291 12.440493 22.353239 6.882370 13.743960 -6.458578 19.861429 30.097643 62.040974 -8.462701 -12.164348 -20.450144 -6.325801 -8.139122 -14.332924 0.000000 0.000000 0.000000 12.621688 -10.712396 0.231899 8.905269 0.376633 1.323778 8.902945 -0.111869 1.243825 0.000000 0.000000 0.000000 11.194713 -5.446730 -1.239449 7.889823 0.455857 0.481039 7.889222 -0.037052 0.412494 0.000000 0.000000 0.000000 10.912717 2.564455 -1.535874 7.825817 -0.947299 -0.611652 7.824722 0.070320 -0.477096 0.000000 0.000000 0.000000 9.631022 11.185607 -2.805182 7.161172 -1.900893 -1.652070 7.157181 0.085565 -1.400512 0.000000 0.000000 0.000000 0.000000 0.000000 0.000000 0.000000 0.000000 0.000000 -90.370071 0.051974 5.208683 -71.842018 19.306828 -7.574249 -0.664994 -8.642401 40.885647 -0.139946 -25.486511 -15.477552 -20.250540 -29.996990 61.691063 8.807010 12.918287 -21.553112 6.618044 8.635277 -15.110494 0.000000 0.000000 0.000000 -16.168392 -5.636370 -1.918335 -11.569428 0.324957 -1.715407 -11.569072 -0.164917 -1.615128 0.000000 0.000000 0.000000 -15.643335 -0.758781 -1.694552 -11.169063 0.440303 -0.678956 -11.168735 -0.058746 -0.582722 0.000000 0.000000 0.000000 -18.003109 7.607869 -1.025503 -12.703986 -0.874371 0.992852 -12.702737 0.099213 0.772902 0.000000 0.000000 0.000000 -18.852142 16.262062 -0.245862 -13.102126 -1.657223 2.980032 -13.096694 0.281077 2.526406 0.000000 0.000000 0.000000 0.000000 0.000000 0.000000 0.000000 0.000000 0.000000 -1.045058 -10.518975 11.869204 -0.078405 -0.635030 3.758801 -2.197730 -7.901679 18.681496 -0.890004 0.828132 -18.870453 0.000000 0.000000 0.000000 0.000000 0.000000 0.000000 0.000000 0.000000 0.000000 -1.784023 -6.543907 7.474547 0.053202 0.398207 7.545935 3.843466 -1.785134 17.966772 0.194973 -0.390531 -20.817129 0.000000 0.000000 0.000000 0.000000 0.000000 0.000000 0.000000 0.000000 0.000000 
0.111695 88.921555 2.915570 -0.283518 -0.307582 -7.338294 1.307217 -0.183877 6.641737 -0.951615 0.115588 2.695525 0.739049 -1.601396 1.547812 -0.898964 -0.166237 3.117662 1.282246 2.314278 3.135864 0.358230 2.978392 -3.796722 -1.063297 -0.601604 -18.474693 0.000000 0.000000 0.000000 92.934227 -0.445162 9.605568 64.955498 -32.195168 4.079822 -0.111861 13.124076 23.209080 6.831900 13.050678 -6.954970 19.874403 30.092415 62.075932 -8.436221 -12.080024 -20.436571 -6.295238 -8.094749 -14.277699 0.000000 0.000000 0.000000 11.954114 -10.738736 -0.282764 8.954362 0.336186 1.322653 8.743981 -0.104954 1.258332 0.000000 0.000000 0.000000 10.802666 -5.343810 -1.076849 7.613874 0.423535 0.515021 7.981812 -0.051878 0.440728 0.000000 0.000000 0.000000 10.262135 2.583448 -0.825335 7.411023 -0.891034 -0.848573 7.456952 0.065923 -0.623397 0.000000 0.000000 0.000000 9.566962 11.052198 -1.773413 7.105264 -1.654141 -2.417620 6.692619 0.274199 -2.044249 0.000000 0.000000 0.000000 0.000000 0.000000 0.000000 0.000000 0.000000 0.000000 -89.890800 0.129948 6.005601 -71.729225 19.513151 -6.573835 -1.228063 -9.145713 40.422886 1.915195 -23.186056 -16.037354 -20.249033 -29.961409 61.601479 8.903134 12.951476 -21.696287 6.661716 8.668385 -15.164392 0.000000 0.000000 0.000000 -17.235470 -5.480344 -0.082618 -10.969485 0.296366 -1.387569 -11.089454 -0.166672 -1.280222 0.000000 0.000000 0.000000 -16.570162 -0.498540 -0.875123 -10.852593 0.409605 -0.587494 -10.775438 -0.065509 -0.471435 0.000000 0.000000 0.000000 -18.730858 7.530000 -0.723266 -12.351109 -0.870194 0.846186 -12.329869 0.082592 0.656768 0.000000 0.000000 0.000000 -19.987860 15.925338 -1.149288 -12.914067 -1.553710 2.641402 -12.769240 0.340965 2.247223 0.000000 0.000000 0.000000 0.000000 0.000000 0.000000 0.000000 0.000000 0.000000 0.138020 -9.175356 11.024639 -0.048543 -0.640723 6.150424 -2.888515 -9.010860 17.714426 -0.797790 0.759758 -19.023647 0.000000 0.000000 0.000000 0.000000 0.000000 0.000000 0.000000 0.000000 0.000000 -1.530286 -6.377410 7.196269 0.057542 0.367376 8.530791 3.717533 -0.550133 16.962658 0.390234 -0.473639 -20.501617 0.000000 0.000000 0.000000 0.000000 0.000000 0.000000 0.000000 0.000000 0.000000 
0.115747 88.908409 2.908139 -0.312544 -0.377128 -7.422267 1.307952 -0.171189 6.679970 -0.887084 0.101467 2.676369 0.738797 -1.566848 1.649841 -0.877977 -0.135376 3.177299 1.265950 2.217883 3.073331 0.352086 2.905439 -3.791240 -1.079833 -0.636115 -18.454525 0.000000 0.000000 0.000000 92.807823 -0.448098 9.534054 64.909592 -32.444927 4.136434 -0.058239 13.205950 23.267260 6.682310 12.595398 -6.957860 19.858324 30.095598 62.080318 -8.433812 -12.062566 -20.412291 -6.292932 -8.079459 -14.261787 0.000000 0.000000 0.000000 11.950507 -10.738477 -0.310760 8.999604 0.343268 1.295821 8.805033 -0.096401 1.232205 0.000000 0.000000 0.000000 10.834634 -5.337735 -1.056286 7.671923 0.425111 0.504196 8.040584 -0.049479 0.432187 0.000000 0.000000 0.000000 10.301286 2.569912 -0.764935 7.499623 -0.893737 -0.836280 7.551480 0.061824 -0.610946 0.000000 0.000000 0.000000 9.546847 11.033767 -1.634789 7.117689 -1.663098 -2.396062 6.728450 0.264367 -2.018018 0.000000 0.000000 0.000000 0.000000 0.000000 0.000000 0.000000 0.000000 0.000000 -89.840027 0.139016 6.029994 -71.920578 19.607409 -6.584509 -1.226998 -9.216219 40.473755 2.057968 -22.817347 -15.992028 -20.238878 -29.967319 61.614929 8.883741 12.925339 -21.661058 6.648391 8.648232 -15.132548 0.000000 0.000000 0.000000 -17.148907 -5.518921 -0.132103 -11.038735 0.298925 -1.370834 -11.134135 -0.162181 -1.268227 0.000000 0.000000 0.000000 -16.473812 -0.523000 -0.909193 -10.923824 0.410304 -0.584880 -10.845849 -0.065426 -0.469661 0.000000 0.000000 0.000000 -18.707125 7.521464 -0.772118 -12.424445 -0.870821 0.846066 -12.390859 0.081767 0.655390 0.000000 0.000000 0.000000 -19.991522 15.915318 -1.211729 -12.935339 -1.558787 2.624717 -12.767287 0.337125 2.246727 0.000000 0.000000 0.000000 0.000000 0.000000 0.000000 0.000000 0.000000 0.000000 0.158491 -9.107248 11.142407 -0.048928 -0.643690 6.066810 -2.843068 -9.038193 17.760330 -0.802529 0.760630 -19.029682 0.000000 0.000000 0.000000 0.000000 0.000000 0.000000 0.000000 0.000000 0.000000 -1.494917 -6.332481 7.189901 0.055996 0.355916 8.643353 3.714310 -0.542110 16.946585 0.371195 -0.476483 -20.528593 0.000000 0.000000 0.000000 0.000000 0.000000 0.000000 0.000000 0.000000 0.000000 
0.119447 88.901718 2.921752 -0.330119 -0.441064 -7.539309 1.316586 -0.163891 6.687273 -0.868959 0.100693 2.670774 0.751860 -1.541330 1.734221 -0.869321 -0.099146 3.266067 1.248726 2.151228 3.075413 0.363147 2.848168 -3.749438 -1.071545 -0.647288 -18.468300 0.000000 0.000000 0.000000 92.711624 -0.455654 9.481809 64.926231 -32.351627 4.049144 -0.035567 13.296742 23.441494 6.772724 12.138915 -6.934430 19.868673 30.095362 62.067741 -8.442290 -12.095894 -20.453812 -6.301318 -8.095833 -14.291036 0.000000 0.000000 0.000000 12.073020 -10.773501 -0.304718 9.127843 0.351682 1.264105 8.942952 -0.088072 1.202920 0.000000 0.000000 0.000000 10.967929 -5.356856 -1.016586 7.802273 0.428502 0.491299 8.168920 -0.046354 0.421584 0.000000 0.000000 0.000000 10.406811 2.560456 -0.669305 7.629413 -0.898072 -0.822783 7.684127 0.058265 -0.598673 0.000000 0.000000 0.000000 9.573331 11.042520 -1.458090 7.179329 -1.673109 -2.375901 6.809142 0.256910 -2.000717 0.000000 0.000000 0.000000 0.000000 0.000000 0.000000 0.000000 0.000000 0.000000 -89.808311 0.151606 6.030946 -72.059486 19.614159 -6.577297 -1.198318 -9.278766 40.499157 2.032122 -22.441019 -15.842543 -20.250175 -29.968273 61.610748 8.881510 12.926551 -21.682022 6.649137 8.653880 -15.138729 0.000000 0.000000 0.000000 -17.201828 -5.536965 -0.102257 -11.091792 0.303205 -1.350315 -11.165309 -0.157502 -1.251956 0.000000 0.000000 0.000000 -16.507027 -0.527257 -0.876301 -10.977717 0.412052 -0.577661 -10.908358 -0.064561 -0.463587 0.000000 0.000000 0.000000 -18.799213 7.529758 -0.712826 -12.478383 -0.873176 0.843210 -12.445256 0.080157 0.651203 0.000000 0.000000 0.000000 -20.126200 15.915030 -1.165508 -12.973429 -1.564236 2.617155 -12.782108 0.336410 2.249410 0.000000 0.000000 0.000000 0.000000 0.000000 0.000000 0.000000 0.000000 0.000000 0.156422 -9.031742 11.285211 -0.049096 -0.642521 6.056445 -2.798413 -9.053885 17.784103 -0.804921 0.760907 -19.040634 0.000000 0.000000 0.000000 0.000000 0.000000 0.000000 0.000000 0.000000 0.000000 -1.478669 -6.307908 7.217123 0.055464 0.353517 8.776669 3.714394 -0.538213 16.907633 0.361740 -0.480393 -20.538389 0.000000 0.000000 0.000000 0.000000 0.000000 0.000000 0.000000 0.000000 0.000000 
